<svg xmlns="http://www.w3.org/2000/svg" version="1.1" xmlns:xlink="http://www.w3.org/1999/xlink" xmlns:svgjs="http://svgjs.com/svgjs" width="1440" height="800" preserveAspectRatio="none" viewBox="0 0 1440 800">
    <g mask="url(&quot;#SvgjsMask1064&quot;)" fill="none">
        <rect width="1440" height="800" x="0" y="0" fill="rgba(9, 15, 41, 1)"></rect>
        <path d="M0,685.325C126.043,679.428,199.838,544.114,302.847,471.239C400.126,402.418,545.377,379.858,588.696,268.849C632.068,157.703,536.574,43.321,515.668,-74.142C495.684,-186.425,550.22,-326.393,468.583,-406.03C385.894,-486.694,245.187,-426.894,131.74,-448.666C32.764,-467.661,-57.662,-554.098,-154.323,-525.575C-250.979,-497.053,-284.963,-380.228,-352.785,-305.69C-422.77,-228.776,-541.242,-182.822,-559.366,-80.425C-577.495,22.001,-482.075,105.896,-442.675,202.163C-401.189,303.526,-395.611,419.7,-321.623,500.455C-236.361,593.515,-126.075,691.223,0,685.325" fill="#060a1b"></path>
        <path d="M1440 1337.231C1540.081 1334.4279999999999 1588.246 1211.478 1658.768 1140.41 1713.317 1085.438 1770.68 1036.013 1806.853 967.5360000000001 1844.745 895.8050000000001 1868.8029999999999 819.065 1871.349 737.981 1874.272 644.865 1884.042 538.5029999999999 1822.518 468.546 1761.021 398.62 1649.864 415.54 1561.62 385.799 1468.652 354.465 1381.056 252.60799999999995 1289.974 289.06 1196.667 326.403 1215.562 472.573 1151.438 549.96 1089.583 624.608 948.163 631.586 927.641 726.3340000000001 907.447 819.566 1006.5889999999999 894.428 1059.658 973.697 1104.324 1040.414 1155.172 1097.414 1213.212 1152.8890000000001 1285.092 1221.593 1340.606 1340.0149999999999 1440 1337.231" fill="#0c1437"></path>
    </g>
    <defs>
        <mask id="SvgjsMask1064">
            <rect width="1440" height="800" fill="#ffffff"></rect>
        </mask>
    </defs>
</svg>